<?xml version="1.0" encoding="UTF-8" standalone="no"?>
<!-- Created with Inkscape (http://www.inkscape.org/) -->

<svg
   width="1024mm"
   height="1024mm"
   viewBox="0 0 1024 1024"
   version="1.1"
   id="svg1"
   inkscape:version="1.3.2 (091e20e, 2023-11-25, custom)"
   sodipodi:docname="money.svg"
   inkscape:export-filename="icon.png"
   inkscape:export-xdpi="12.7"
   inkscape:export-ydpi="12.7"
   xmlns:inkscape="http://www.inkscape.org/namespaces/inkscape"
   xmlns:sodipodi="http://sodipodi.sourceforge.net/DTD/sodipodi-0.dtd"
   xmlns="http://www.w3.org/2000/svg"
   xmlns:svg="http://www.w3.org/2000/svg">
  <sodipodi:namedview
     id="namedview1"
     pagecolor="#ffffff"
     bordercolor="#666666"
     borderopacity="1.0"
     inkscape:showpageshadow="2"
     inkscape:pageopacity="0.0"
     inkscape:pagecheckerboard="0"
     inkscape:deskcolor="#d1d1d1"
     inkscape:document-units="mm"
     inkscape:zoom="0.19507853"
     inkscape:window-width="1920"
     inkscape:window-height="986"
     inkscape:window-x="-11"
     inkscape:window-y="-11"
     inkscape:window-maximized="1"
     inkscape:current-layer="layer1"
     inkscape:cx="1935.1181"
     inkscape:cy="1935.1181" />
  <defs
     id="defs1" />
  <g
     inkscape:label="Layer 1"
     inkscape:groupmode="layer"
     id="layer1">
    <path
       id="path1"
       style="fill:#ffffff;stroke:#000000;stroke-linejoin:round;stroke-opacity:1;fill-opacity:1;stroke-width:16;paint-order:markers stroke fill"
       d="M 472 88 L 472 172.71194 A 192 192 0 0 0 320 360 A 192 192 0 0 0 512 552 A 112 112 0 0 1 624 664 A 112 112 0 0 1 512 776 A 112 112 0 0 1 400 664 L 320 664 A 192 192 0 0 0 472 851.28809 L 472 936 L 552 936 L 552 851.28809 A 192 192 0 0 0 704 664 A 192 192 0 0 0 512 472 A 112 112 0 0 1 400 360 A 112 112 0 0 1 512 248 A 112 112 0 0 1 624 360 L 704 360 A 192 192 0 0 0 552 172.26029 L 552 88 L 472 88 z" />
  </g>
</svg>
